<svg width="82" height="82" viewBox="0 0 82 82" fill="none" xmlns="http://www.w3.org/2000/svg">
<g id="carabiner 1">
<g id="Group">
<g id="Group_2">
<path id="Vector" d="M62.1256 3.58398C59.3827 1.27276 55.8969 0 52.3104 0C51.4468 0 50.5775 0.0743126 49.7259 0.220856L27.1024 4.11586C22.9506 4.8308 19.2465 7.26246 16.9396 10.7881C14.633 14.3135 13.8885 18.6816 14.8963 22.7723L16.2703 28.3485L25.6388 26.04L24.2649 20.464C23.8955 18.9645 24.1683 17.3629 25.0139 16.0708C25.8595 14.7783 27.2175 13.8867 28.7395 13.6247L51.3629 9.72983C51.6752 9.67602 51.994 9.64879 52.3104 9.64879C53.6251 9.64879 54.903 10.1153 55.9086 10.9627C57.1706 12.0262 57.8945 13.5826 57.8945 15.2331V66.7672C57.8945 68.3475 57.2208 69.8603 56.0463 70.9175C55.0191 71.8421 53.6923 72.3514 52.3108 72.3514C52.1161 72.3514 51.9189 72.3411 51.7251 72.3205L40.5499 71.1425C38.2179 70.8968 36.2742 69.2019 35.7133 66.9251L34.8783 63.5362L25.5098 65.8447L26.3447 69.2334C27.8748 75.4442 33.1768 80.0677 39.5382 80.7381L50.7138 81.9161C51.2424 81.9718 51.7794 82 52.3107 82C56.0803 82 59.6993 80.611 62.5013 78.0888C65.7054 75.2047 67.5433 71.078 67.5433 66.767V15.2331C67.5432 10.7308 65.5686 6.48474 62.1256 3.58398Z" fill="white"/>
</g>
</g>
<g id="Group_3">
<g id="Group_4">
<path id="Vector_2" d="M26.8976 31.15L17.5291 33.4586L24.2501 60.7346L33.6186 58.4261L26.8976 31.15ZM27.5685 56.2835C26.467 56.2835 25.5739 55.3905 25.5739 54.2889C25.5739 53.1873 26.467 52.2943 27.5685 52.2943C28.6701 52.2943 29.5631 53.1873 29.5631 54.2889C29.5631 55.3905 28.6701 56.2835 27.5685 56.2835Z" fill="white"/>
</g>
</g>
</g>
</svg>
